<svg fill="#7b6452" height="800" viewBox="0 0 395.71 395.71" width="800" xmlns="http://www.w3.org/2000/svg"><path d="m197.849 0c-75.718 0-137.318 61.609-137.318 137.329 0 72.887 124.591 243.177 129.896 250.388l4.951 6.738c.579.792 1.501 1.255 2.471 1.255.985 0 1.901-.463 2.486-1.255l4.948-6.738c5.308-7.211 129.896-177.501 129.896-250.388 0-75.72-61.61-137.329-137.33-137.329zm0 88.138c27.13 0 49.191 22.062 49.191 49.191 0 27.115-22.062 49.191-49.191 49.191-27.114 0-49.191-22.076-49.191-49.191 0-27.129 22.076-49.191 49.191-49.191z"/></svg>