<svg height="256" viewBox="0 0 256 256" width="256" xmlns="http://www.w3.org/2000/svg"><path d="m38.789 51.211 10.876 10.876c.974.974 2.471 1.194 3.684.543l13.034-6.997c.964-.518 2.129-.493 3.07.066l19.017 11.285c1.357.805 1.903 2.489 1.268 3.933-1.625 3.698-4.583 10.476-5.758 13.473-.247.631-.615 1.209-1.127 1.652-12.674 10.986-37.89-2.4-57.191-21.701-19.304-19.302-32.69-44.518-21.704-57.192.444-.512 1.022-.88 1.652-1.127 2.996-1.175 9.775-4.133 13.473-5.758 1.444-.635 3.128-.089 3.933 1.268l11.285 19.017c.558.941.583 2.106.066 3.07l-6.997 13.032c-.651 1.213-.431 2.71.543 3.684 0 0 10.876 10.876 10.876 10.876z" transform="matrix(2.81 0 0 2.81 1.406593 1.406593)"/></svg>